<svg width="1200" height="630" viewBox="0 0 1200 630" fill="none" xmlns="http://www.w3.org/2000/svg">
  <defs>
    <linearGradient id="background" x1="0" y1="0" x2="1200" y2="630" gradientUnits="userSpaceOnUse">
      <stop stop-color="#FFFCF7"/>
      <stop offset="0.58" stop-color="#F7EFE3"/>
      <stop offset="1" stop-color="#EEF8F5"/>
    </linearGradient>
    <linearGradient id="tealGold" x1="132" y1="220" x2="620" y2="420" gradientUnits="userSpaceOnUse">
      <stop stop-color="#0F7E72"/>
      <stop offset="0.55" stop-color="#18A796"/>
      <stop offset="1" stop-color="#C89A5A"/>
    </linearGradient>
    <linearGradient id="cardGlow" x1="710" y1="98" x2="1110" y2="520" gradientUnits="userSpaceOnUse">
      <stop stop-color="#FFFFFF"/>
      <stop offset="1" stop-color="#F3E8D9"/>
    </linearGradient>
    <filter id="softShadow" x="610" y="58" width="574" height="544" filterUnits="userSpaceOnUse" color-interpolation-filters="sRGB">
      <feFlood flood-opacity="0" result="BackgroundImageFix"/>
      <feColorMatrix in="SourceAlpha" type="matrix" values="0 0 0 0 0 0 0 0 0 0 0 0 0 0 0 0 0 0 127 0" result="hardAlpha"/>
      <feOffset dy="28"/>
      <feGaussianBlur stdDeviation="28"/>
      <feComposite in2="hardAlpha" operator="out"/>
      <feColorMatrix type="matrix" values="0 0 0 0 0.12 0 0 0 0 0.14 0 0 0 0 0.18 0 0 0 0.14 0"/>
      <feBlend mode="normal" in2="BackgroundImageFix" result="dropShadow"/>
      <feBlend mode="normal" in="SourceGraphic" in2="dropShadow" result="shape"/>
    </filter>
  </defs>

  <rect width="1200" height="630" fill="url(#background)"/>
  <circle cx="1090" cy="78" r="150" fill="#E2F4EF" opacity="0.7"/>
  <circle cx="1015" cy="560" r="210" fill="#F3D9B6" opacity="0.28"/>
  <path d="M64 526C185 474 250 522 348 470C447 417 489 294 642 278C782 264 822 368 951 332C1038 308 1072 236 1139 222" stroke="#CDAA72" stroke-width="2" stroke-linecap="round" opacity="0.28"/>
  <path d="M86 562C216 506 311 562 426 500C537 441 558 338 689 319C826 299 876 407 1001 377C1072 360 1111 318 1148 284" stroke="#0F8E82" stroke-width="2" stroke-linecap="round" opacity="0.22"/>

  <g transform="translate(116 86)">
    <circle cx="54" cy="54" r="46" fill="#1C2430"/>
    <text x="54" y="72" text-anchor="middle" font-family="Georgia, serif" font-size="48" font-weight="700" fill="#FFF8EF">C</text>
    <text x="122" y="45" font-family="Inter, Arial, PingFang SC, Microsoft YaHei, sans-serif" font-size="32" font-weight="760" fill="#1C2430">Cursive Generator</text>
  </g>

  <g transform="translate(116 252)">
    <text x="0" y="0" font-family="PingFang SC, Hiragino Sans GB, Microsoft YaHei, Arial, sans-serif" font-size="72" font-weight="760" fill="#1C2430">花体英文生成器</text>
    <rect x="2" y="34" width="398" height="8" rx="4" fill="url(#tealGold)"/>
    <text x="0" y="110" font-family="PingFang SC, Hiragino Sans GB, Microsoft YaHei, Arial, sans-serif" font-size="32" font-weight="520" fill="#4F5B67">复制花体文字，预览字体样式，</text>
    <text x="0" y="157" font-family="PingFang SC, Hiragino Sans GB, Microsoft YaHei, Arial, sans-serif" font-size="32" font-weight="520" fill="#4F5B67">一键保存高清 PNG。</text>
  </g>

  <g transform="translate(116 522)">
    <rect x="0" y="-34" width="520" height="56" rx="28" fill="#FFFFFF" opacity="0.78"/>
    <circle cx="28" cy="-6" r="8" fill="#12A190"/>
    <text x="52" y="3" font-family="Inter, Arial, PingFang SC, Microsoft YaHei, sans-serif" font-size="24" font-weight="700" fill="#1C2430">cursivegenerator.pro/zh/cursive-text-generator</text>
  </g>

  <g filter="url(#softShadow)">
    <rect x="682" y="112" width="398" height="396" rx="44" fill="url(#cardGlow)"/>
    <rect x="708" y="138" width="346" height="344" rx="32" fill="#FFFCF7" stroke="#EFE1CD" stroke-width="1.5"/>
    <path d="M748 382C794 345 822 415 864 369C902 328 935 288 1018 304" stroke="#18A796" stroke-width="3" stroke-linecap="round" opacity="0.55"/>
    <text x="880" y="275" text-anchor="middle" font-family="Snell Roundhand, Brush Script MT, Georgia, serif" font-size="104" font-weight="500" fill="#16302F">Hello</text>
    <text x="880" y="346" text-anchor="middle" font-family="PingFang SC, Hiragino Sans GB, Microsoft YaHei, Arial, sans-serif" font-size="24" font-weight="650" fill="#65717D">输入文字 · 选择样式 · 复制保存</text>
    <g transform="translate(764 404)">
      <rect x="0" y="0" width="96" height="38" rx="19" fill="#E6F6F2"/>
      <text x="48" y="25" text-anchor="middle" font-family="Inter, Arial, sans-serif" font-size="16" font-weight="760" fill="#0F7E72">Copy</text>
      <rect x="112" y="0" width="112" height="38" rx="19" fill="#FBF0DD"/>
      <text x="168" y="25" text-anchor="middle" font-family="Inter, Arial, sans-serif" font-size="16" font-weight="760" fill="#A76F2E">Preview</text>
    </g>
  </g>
</svg>
